<?xml version="1.0" encoding="UTF-8"?>
<svg xmlns="http://www.w3.org/2000/svg" viewBox="0 0 420 640" width="420" height="640">
<defs>
  <style>
    .bg { fill: #0d0d1a; }
    .center-def { stroke-width: 2; }
    .center-undef { fill: #1a1a2a; stroke: #333355; stroke-width: 1.5; }
    .ch-undef { stroke: #1e1e30; stroke-width: 2; fill: none; }
    .ch-p { stroke: #222222; stroke-width: 4; fill: none; }
    .ch-d { stroke: #cc2222; stroke-width: 4; fill: none; }
    .ch-both { stroke-width: 4; fill: none; }
    .ch-transit { stroke: #22aa55; stroke-width: 3; fill: none; stroke-dasharray: 8,4; }
    .g-p { fill: #222222; stroke: #555555; stroke-width: 1; }
    .g-d { fill: #cc2222; stroke: #ff4444; stroke-width: 1; }
    .g-both { fill: #7733aa; stroke: #aa55dd; stroke-width: 1; }
    .g-transit { fill: #22aa55; stroke: #44dd77; stroke-width: 1; }
    .g-num { font-family: 'Helvetica Neue', Arial, sans-serif; font-size: 7.5px; fill: #ffffff; text-anchor: middle; dominant-baseline: central; font-weight: bold; }
    .g-num-dim { font-family: 'Helvetica Neue', Arial, sans-serif; font-size: 6px; fill: #444466; text-anchor: middle; dominant-baseline: central; }
    .c-label { font-family: 'Helvetica Neue', Arial, sans-serif; font-size: 8px; fill: #888899; text-anchor: middle; dominant-baseline: central; }
    .title { font-family: 'Helvetica Neue', Arial, sans-serif; font-size: 13px; fill: #ccccee; text-anchor: middle; font-weight: 600; }
    .subtitle { font-family: 'Helvetica Neue', Arial, sans-serif; font-size: 9px; fill: #8888aa; text-anchor: middle; }
    .legend { font-family: 'Helvetica Neue', Arial, sans-serif; font-size: 7px; fill: #888899; }
  </style>
</defs>
<rect class="bg" width="420" height="640" rx="10"/>
<text class="title" x="210" y="18">Manifestor — Profile 1/3</text>
<text class="subtitle" x="210" y="32">To Inform | Emotional (Solar Plexus) | Cross 22/47 | 26/45</text>
<line x1="210.0" y1="214.0" x2="210.0" y2="214.0" class="ch-transit"/>
<line x1="214.0" y1="239.0" x2="204.0" y2="297.0" class="ch-undef"/>
<line x1="210.0" y1="485.0" x2="214.0" y2="535.0" class="ch-undef"/>
<line x1="215.0" y1="103.0" x2="202.0" y2="77.0" class="ch-undef"/>
<line x1="210.0" y1="322.0" x2="210.0" y2="322.0" class="ch-undef"/>
<line x1="279.1" y1="430.0" x2="236.9" y2="459.2" class="ch-undef"/>
<line x1="210.0" y1="214.0" x2="210.0" y2="214.0" class="ch-undef"/>
<line x1="218.0" y1="485.0" x2="218.0" y2="535.0" class="ch-undef"/>
<line x1="210.0" y1="214.0" x2="210.0" y2="214.0" class="ch-undef"/>
<line x1="218.0" y1="239.0" x2="218.0" y2="435.0" class="ch-undef"/>
<line x1="207.1" y1="240.1" x2="125.5" y2="395.9" class="ch-undef"/>
<line x1="200.0" y1="153.0" x2="211.0" y2="171.0" class="ch-p"/>
<line x1="211.0" y1="171.0" x2="222.0" y2="189.0" class="ch-d"/>
<line x1="207.4" y1="242.5" x2="247.3" y2="320.9" class="ch-p"/>
<line x1="247.3" y1="320.9" x2="287.2" y2="399.2" class="ch-d"/>
<line x1="210.0" y1="214.0" x2="210.0" y2="214.0" class="ch-undef"/>
<line x1="212.6" y1="242.5" x2="120.9" y2="393.9" class="ch-undef"/>
<line x1="215.0" y1="153.0" x2="192.0" y2="189.0" class="ch-undef"/>
<line x1="123.4" y1="446.4" x2="186.2" y2="545.7" class="ch-undef"/>
<line x1="232.1" y1="544.6" x2="284.1" y2="438.1" class="ch-undef"/>
<line x1="220.0" y1="239.0" x2="218.0" y2="435.0" class="ch-undef"/>
<line x1="208.9" y1="240.9" x2="125.5" y2="395.9" class="ch-undef"/>
<line x1="150.8" y1="267.7" x2="204.4" y2="243.2" class="ch-d"/>
<line x1="198.0" y1="189.0" x2="205.0" y2="153.0" class="ch-d"/>
<line x1="205.0" y1="103.0" x2="210.0" y2="77.0" class="ch-undef"/>
<line x1="187.0" y1="226.6" x2="159.5" y2="276.0" class="ch-undef"/>
<line x1="137.2" y1="315.2" x2="124.8" y2="395.7" class="ch-undef"/>
<line x1="185.5" y1="453.7" x2="138.9" y2="434.6" class="ch-undef"/>
<line x1="135.9" y1="438.1" x2="189.6" y2="543.5" class="ch-undef"/>
<line x1="216.0" y1="297.0" x2="204.0" y2="239.0" class="ch-undef"/>
<line x1="285.8" y1="439.2" x2="233.8" y2="545.7" class="ch-transit"/>
<line x1="125.0" y1="445.3" x2="192.9" y2="541.3" class="ch-undef"/>
<line x1="190.3" y1="442.7" x2="142.1" y2="427.2" class="ch-undef"/>
<line x1="203.8" y1="244.2" x2="284.5" y2="400.4" class="ch-undef"/>
<line x1="280.5" y1="406.8" x2="155.7" y2="307.9" class="ch-transit"/>
<line x1="235.4" y1="546.8" x2="281.6" y2="436.5" class="ch-undef"/>
<line x1="206.0" y1="485.0" x2="210.0" y2="535.0" class="ch-transit"/>
<line x1="200.0" y1="103.0" x2="218.0" y2="77.0" class="ch-undef"/>
<polygon points="210,30 188,67 232,67" fill="#1a1a2a" stroke="#333355" stroke-width="1.5"/>
<text class="c-label" x="210" y="54">Head</text>
<polygon points="210,106 188,143 232,143" fill="#4aad52" stroke="#ffffff44" stroke-width="2"/>
<text class="c-label" x="210" y="130">Ajna</text>
<rect x="186" y="194" width="48" height="40" rx="4" fill="#c0834a" stroke="#ffffff44" stroke-width="2"/>
<text class="c-label" x="210" y="216">Throat</text>
<polygon points="210,301 231,322 210,343 189,322" fill="#1a1a2a" stroke="#333355" stroke-width="1.5"/>
<text class="c-label" x="210" y="324">G</text>
<polygon points="138,272 120,303 156,303" fill="#d44a4a" stroke="#ffffff44" stroke-width="2"/>
<text class="c-label" x="138" y="292">Ego</text>
<polygon points="99,420 131,401 131,439" fill="#1a1a2a" stroke="#333355" stroke-width="1.5"/>
<text class="c-label" x="118" y="422">Spleen</text>
<polygon points="283,407 321,407 302,439" fill="#c05a30" stroke="#ffffff44" stroke-width="2"/>
<text class="c-label" x="302" y="422">SP</text>
<rect x="186" y="442" width="48" height="36" rx="4" fill="#1a1a2a" stroke="#333355" stroke-width="1.5"/>
<text class="c-label" x="210" y="462">Sacral</text>
<rect x="186" y="540" width="48" height="40" rx="4" fill="#1a1a2a" stroke="#333355" stroke-width="1.5"/>
<text class="c-label" x="210" y="562">Root</text>
<circle cx="210.0" cy="214.0" r="7" class="g-p"/><text class="g-num" x="210.0" y="214.0">1</text>
<circle cx="214.0" cy="246.0" r="7" class="g-p"/><text class="g-num" x="214.0" y="246.0">2</text>
<circle cx="210.0" cy="322.0" r="7.5" class="g-both"/><text class="g-num" x="210.0" y="322.0">5</text>
<circle cx="204.0" cy="246.0" r="6.5" class="g-transit"/><text class="g-num" x="204.0" y="246.0">8</text>
<circle cx="200.0" cy="160.0" r="7" class="g-d"/><text class="g-num" x="200.0" y="160.0">11</text>
<circle cx="210.3" cy="248.9" r="7.5" class="g-both"/><text class="g-num" x="210.3" y="248.9">12</text>
<circle cx="210.0" cy="214.0" r="6.5" class="g-transit"/><text class="g-num" x="210.0" y="214.0">13</text>
<circle cx="215.0" cy="160.0" r="7" class="g-d"/><text class="g-num" x="215.0" y="160.0">17</text>
<circle cx="220.0" cy="246.0" r="7" class="g-p"/><text class="g-num" x="220.0" y="246.0">20</text>
<circle cx="155.7" cy="262.6" r="7" class="g-d"/><text class="g-num" x="155.7" y="262.6">21</text>
<circle cx="284.4" cy="392.8" r="7" class="g-p"/><text class="g-num" x="284.4" y="392.8">22</text>
<circle cx="198.0" cy="182.0" r="7" class="g-d"/><text class="g-num" x="198.0" y="182.0">23</text>
<circle cx="182.2" cy="231.7" r="6.5" class="g-transit"/><text class="g-num" x="182.2" y="231.7">25</text>
<circle cx="136.1" cy="322.1" r="7" class="g-d"/><text class="g-num" x="136.1" y="322.1">26</text>
<circle cx="139.8" cy="444.0" r="7.5" class="g-both"/><text class="g-num" x="139.8" y="444.0">28</text>
<circle cx="210.0" cy="322.0" r="6.5" class="g-transit"/><text class="g-num" x="210.0" y="322.0">29</text>
<circle cx="281.9" cy="445.1" r="7" class="g-p"/><text class="g-num" x="281.9" y="445.1">30</text>
<circle cx="216.0" cy="246.0" r="7" class="g-d"/><text class="g-num" x="216.0" y="246.0">31</text>
<circle cx="275.1" cy="402.5" r="6.5" class="g-transit"/><text class="g-num" x="275.1" y="402.5">37</text>
<circle cx="161.2" cy="312.2" r="6.5" class="g-transit"/><text class="g-num" x="161.2" y="312.2">40</text>
<circle cx="237.6" cy="539.8" r="6.5" class="g-transit"/><text class="g-num" x="237.6" y="539.8">41</text>
<circle cx="206.0" cy="492.0" r="7" class="g-p"/><text class="g-num" x="206.0" y="492.0">42</text>
<circle cx="205.0" cy="160.0" r="7" class="g-d"/><text class="g-num" x="205.0" y="160.0">43</text>
<circle cx="199.6" cy="248.2" r="7" class="g-d"/><text class="g-num" x="199.6" y="248.2">45</text>
<circle cx="200.0" cy="96.0" r="7" class="g-p"/><text class="g-num" x="200.0" y="96.0">47</text>
<circle cx="123.7" cy="387.5" r="7.5" class="g-both"/><text class="g-num" x="123.7" y="387.5">48</text>
<circle cx="280.2" cy="444.0" r="7" class="g-p"/><text class="g-num" x="280.2" y="444.0">49</text>
<circle cx="210.0" cy="528.0" r="6.5" class="g-transit"/><text class="g-num" x="210.0" y="528.0">53</text>
<circle cx="222.0" cy="182.0" r="7" class="g-p"/><text class="g-num" x="222.0" y="182.0">56</text>
<circle cx="202.0" cy="84.0" r="6.5" class="g-transit"/><text class="g-num" x="202.0" y="84.0">63</text>
<rect x="20" y="612" width="380" height="22" rx="4" fill="#111122"/>
<circle cx="40" cy="623" r="4" class="g-p"/><text class="legend" x="48" y="626">Personality</text>
<circle cx="115" cy="623" r="4" class="g-d"/><text class="legend" x="123" y="626">Design</text>
<circle cx="170" cy="623" r="4" class="g-both"/><text class="legend" x="178" y="626">Both</text>
<circle cx="210" cy="623" r="4" class="g-transit"/><text class="legend" x="218" y="626">Transit</text>
</svg>
