<?xml version="1.0" encoding="UTF-8"?>
<svg xmlns="http://www.w3.org/2000/svg" viewBox="0 0 380 560" width="380" height="560">
<defs>
  <style>
    .bg { fill: #f0ede8; }
    .center-def { stroke-width: 1.5; }
    .center-undef { fill: #e8e4df; stroke: #c0bbb5; stroke-width: 1; }
    .ch-undef { stroke: #d5d0ca; stroke-width: 2; fill: none; opacity: 0.4; }
    .ch-p { stroke: #333333; stroke-width: 3.5; fill: none; }
    .ch-d { stroke: #cc3333; stroke-width: 3.5; fill: none; }
    .ch-transit { stroke: #44aa55; stroke-width: 2.5; fill: none; stroke-dasharray: 6,3; }
    .g-num { font-family: 'Helvetica Neue', Arial, sans-serif; font-size: 8px; fill: #ffffff; text-anchor: middle; dominant-baseline: central; font-weight: bold; }
    .g-num-p { font-family: 'Helvetica Neue', Arial, sans-serif; font-size: 8px; fill: #333333; text-anchor: middle; dominant-baseline: central; font-weight: bold; }
    .g-num-d { font-family: 'Helvetica Neue', Arial, sans-serif; font-size: 8px; fill: #cc3333; text-anchor: middle; dominant-baseline: central; font-weight: bold; }
    .g-num-dim { font-family: 'Helvetica Neue', Arial, sans-serif; font-size: 7px; fill: #a09890; text-anchor: middle; dominant-baseline: central; }
    .g-num-transit { font-family: 'Helvetica Neue', Arial, sans-serif; font-size: 7.5px; fill: #44aa55; text-anchor: middle; dominant-baseline: central; font-weight: bold; }
    .c-label { font-family: 'Helvetica Neue', Arial, sans-serif; font-size: 7px; fill: #ffffff88; text-anchor: middle; dominant-baseline: central; }
    .title { font-family: 'Helvetica Neue', Arial, sans-serif; font-size: 11px; fill: #555555; text-anchor: middle; font-weight: 600; }
    .subtitle { font-family: 'Helvetica Neue', Arial, sans-serif; font-size: 8px; fill: #888888; text-anchor: middle; }
  </style>
</defs>
<rect class="bg" width="380" height="560"/>
<text class="subtitle" x="190" y="540">Manifestor | Investigator / Martyr | Emotional (Solar Plexus) | Cross 22/47 | 26/45</text>
<line x1="170" y1="18" x2="172" y2="92" class="ch-undef"/>
<line x1="190" y1="18" x2="190" y2="92" class="ch-undef"/>
<line x1="210" y1="18" x2="208" y2="92" class="ch-undef"/>
<line x1="172" y1="122" x2="160" y2="162" class="ch-undef"/>
<line x1="190" y1="132" x2="178" y2="162" class="ch-d"/>
<line x1="200" y1="122" x2="210" y2="162" class="ch-p"/>
<line x1="202" y1="122" x2="212" y2="162" stroke="#cc3333" stroke-width="2" fill="none" opacity="0.7"/>
<line x1="182" y1="220" x2="178" y2="192" class="ch-undef"/>
<line x1="190" y1="235" x2="192" y2="192" class="ch-transit"/>
<line x1="202" y1="220" x2="228" y2="178" class="ch-undef"/>
<path d="M155,178 C100,200 70,340 62,365" class="ch-undef"/>
<path d="M168,178 C130,220 130,370 160,395" class="ch-undef"/>
<path d="M168,178 C110,220 80,340 72,375" class="ch-undef"/>
<path d="M220,168 C280,200 300,350 286,388" class="ch-undef"/>
<path d="M210,182 C270,210 290,350 298,392" class="ch-p"/>
<path d="M212,182 C272,210 292,350 300,392" stroke="#cc3333" stroke-width="2" fill="none" opacity="0.7"/>
<line x1="218" y1="192" x2="252" y2="252" class="ch-d"/>
<line x1="172" y1="280" x2="168" y2="178" class="ch-undef"/>
<path d="M172,280 C150,310 145,370 160,395" class="ch-undef"/>
<path d="M172,280 C130,310 90,360 72,375" class="ch-undef"/>
<line x1="212" y1="270" x2="268" y2="260" class="ch-undef"/>
<line x1="172" y1="298" x2="172" y2="392" class="ch-undef"/>
<line x1="208" y1="298" x2="200" y2="400" class="ch-undef"/>
<line x1="190" y1="310" x2="182" y2="400" class="ch-undef"/>
<path d="M254,274 C200,300 110,350 82,365" class="ch-undef"/>
<path d="M270,280 C285,300 300,360 308,388" class="ch-transit"/>
<line x1="56" y1="400" x2="150" y2="490" class="ch-undef"/>
<line x1="58" y1="382" x2="155" y2="475" class="ch-undef"/>
<line x1="62" y1="395" x2="165" y2="482" class="ch-undef"/>
<line x1="72" y1="388" x2="168" y2="405" class="ch-undef"/>
<line x1="72" y1="375" x2="160" y2="395" class="ch-undef"/>
<path d="M306,406 C280,440 240,470 215,482" class="ch-undef"/>
<path d="M312,398 C320,430 260,465 222,475" class="ch-undef"/>
<path d="M300,418 C310,450 250,480 228,490" class="ch-transit"/>
<line x1="292" y1="402" x2="210" y2="392" class="ch-undef"/>
<line x1="188" y1="418" x2="172" y2="468" class="ch-transit"/>
<line x1="198" y1="410" x2="190" y2="468" class="ch-undef"/>
<line x1="178" y1="410" x2="208" y2="468" class="ch-undef"/>
<polygon points="190,14 168,50 212,50" fill="#e8e4df" stroke="#c0bbb5" stroke-width="1"/>
<polygon points="170,87 210,87 190,120" fill="#5faa6a" stroke="#00000022" stroke-width="1.5"/>
<rect x="162" y="156" width="56" height="44" rx="3" fill="#8b6b4a" stroke="#00000022" stroke-width="1.5"/>
<polygon points="190,266 214,290 190,314 166,290" fill="#e8e4df" stroke="#c0bbb5" stroke-width="1"/>
<polygon points="251,250 251,286 278,268" fill="#cc4444" stroke="#00000022" stroke-width="1.5"/>
<polygon points="67,358 67,402 102,380" fill="#e8e4df" stroke="#c0bbb5" stroke-width="1"/>
<polygon points="313,378 313,422 278,400" fill="#8b6b4a" stroke="#00000022" stroke-width="1.5"/>
<rect x="162" y="378" width="56" height="44" rx="3" fill="#e8e4df" stroke="#c0bbb5" stroke-width="1"/>
<rect x="162" y="458" width="56" height="44" rx="3" fill="#e8e4df" stroke="#c0bbb5" stroke-width="1"/>
<text class="g-num-dim" x="170" y="18">64</text>
<text class="g-num-dim" x="190" y="18">61</text>
<text class="g-num-transit" x="210" y="18">63</text>
<text class="g-num-p" x="172" y="92">47</text>
<text class="g-num-dim" x="190" y="92">24</text>
<text class="g-num-dim" x="208" y="92">4</text>
<text class="g-num-d" x="172" y="122">17</text>
<text class="g-num-d" x="200" y="122">11</text>
<text class="g-num-d" x="190" y="132">43</text>
<text class="g-num-dim" x="160" y="162">62</text>
<text class="g-num-d" x="178" y="162">23</text>
<text class="g-num-p" x="210" y="162">56</text>
<text class="g-num-dim" x="155" y="178">16</text>
<text class="g-num-p" x="168" y="178">20</text>
<text class="g-num-dim" x="220" y="168">35</text>
<circle cx="210" cy="182" r="7" fill="#7733aa" opacity="0.8"/>
<text class="g-num" x="210" y="182">12</text>
<text class="g-num-d" x="218" y="192">45</text>
<text class="g-num-d" x="178" y="192">31</text>
<text class="g-num-transit" x="192" y="192">8</text>
<text class="g-num-dim" x="228" y="178">33</text>
<text class="g-num-dim" x="182" y="220">7</text>
<text class="g-num-p" x="190" y="235">1</text>
<text class="g-num-transit" x="202" y="220">13</text>
<text class="g-num-dim" x="172" y="280">10</text>
<text class="g-num-transit" x="212" y="270">25</text>
<text class="g-num-dim" x="172" y="298">15</text>
<text class="g-num-dim" x="208" y="298">46</text>
<text class="g-num-p" x="190" y="310">2</text>
<text class="g-num-d" x="252" y="252">21</text>
<text class="g-num-d" x="254" y="274">26</text>
<text class="g-num-dim" x="268" y="260">51</text>
<text class="g-num-transit" x="270" y="280">40</text>
<circle cx="62" cy="365" r="7" fill="#7733aa" opacity="0.8"/>
<text class="g-num" x="62" y="365">48</text>
<text class="g-num-dim" x="72" y="375">57</text>
<text class="g-num-dim" x="82" y="365">44</text>
<text class="g-num-dim" x="72" y="388">50</text>
<text class="g-num-dim" x="62" y="395">32</text>
<circle cx="58" cy="382" r="7" fill="#7733aa" opacity="0.8"/>
<text class="g-num" x="58" y="382">28</text>
<text class="g-num-dim" x="56" y="400">18</text>
<text class="g-num-dim" x="286" y="388">36</text>
<text class="g-num-p" x="298" y="392">22</text>
<text class="g-num-transit" x="308" y="388">37</text>
<text class="g-num-dim" x="292" y="402">6</text>
<text class="g-num-p" x="306" y="406">49</text>
<text class="g-num-dim" x="312" y="398">55</text>
<text class="g-num-p" x="300" y="418">30</text>
<circle cx="172" cy="392" r="7" fill="#7733aa" opacity="0.8"/>
<text class="g-num" x="172" y="392">5</text>
<text class="g-num-dim" x="182" y="400">14</text>
<text class="g-num-transit" x="200" y="400">29</text>
<text class="g-num-dim" x="210" y="392">59</text>
<text class="g-num-dim" x="178" y="410">9</text>
<text class="g-num-dim" x="198" y="410">3</text>
<text class="g-num-p" x="188" y="418">42</text>
<text class="g-num-dim" x="168" y="405">27</text>
<text class="g-num-dim" x="160" y="395">34</text>
<text class="g-num-transit" x="172" y="468">53</text>
<text class="g-num-dim" x="190" y="468">60</text>
<text class="g-num-dim" x="208" y="468">52</text>
<text class="g-num-dim" x="165" y="482">54</text>
<text class="g-num-dim" x="155" y="475">38</text>
<text class="g-num-dim" x="150" y="490">58</text>
<text class="g-num-dim" x="215" y="482">19</text>
<text class="g-num-dim" x="222" y="475">39</text>
<text class="g-num-transit" x="228" y="490">41</text>
</svg>
