<?xml version="1.0" encoding="UTF-8"?>
<svg xmlns="http://www.w3.org/2000/svg" viewBox="0 0 400 700" width="400" height="700">
<defs>
  <style>
    .bg { fill: #1a1a2e; }
    .center-def { fill: #2d2d5e; stroke: #8888cc; stroke-width: 1.5; }
    .center-undef { fill: none; stroke: #444466; stroke-width: 1.5; }
    .channel-def { stroke: #8888cc; stroke-width: 3; fill: none; }
    .channel-p { stroke: #333333; stroke-width: 3; fill: none; }
    .channel-d { stroke: #cc3333; stroke-width: 3; fill: none; }
    .channel-both { stroke: #8844cc; stroke-width: 4; fill: none; }
    .channel-undef { stroke: #333344; stroke-width: 1.5; fill: none; stroke-dasharray: 4,4; }
    .channel-transit { stroke: #44aa44; stroke-width: 2.5; fill: none; stroke-dasharray: 6,3; }
    .gate-p { fill: #333333; }
    .gate-d { fill: #cc3333; }
    .gate-both { fill: #8844cc; }
    .gate-transit { fill: #44aa44; }
    .gate-inactive { fill: #333344; }
    .label { font-family: monospace; font-size: 9px; fill: #8888aa; text-anchor: middle; }
    .gate-label { font-family: monospace; font-size: 7px; fill: #ccccdd; text-anchor: middle; }
    .gate-label-active { font-family: monospace; font-size: 8px; fill: #ffffff; text-anchor: middle; font-weight: bold; }
    .title { font-family: sans-serif; font-size: 14px; fill: #ccccee; text-anchor: middle; }
    .type-label { font-family: sans-serif; font-size: 11px; fill: #aaaacc; text-anchor: middle; }
    .center-label { font-family: monospace; font-size: 8px; fill: #aaaacc; text-anchor: middle; }
  </style>
</defs>
<rect class="bg" width="400" height="700" rx="8"/>
<text class="title" x="200" y="20">Manifestor — 1/3</text>
<line x1="210" y1="280" x2="220" y2="250" class="channel-transit"/>
<line x1="200" y1="375" x2="195" y2="455" class="channel-undef"/>
<line x1="210" y1="500" x2="210" y2="570" class="channel-undef"/>
<line x1="200" y1="105" x2="225" y2="40" class="channel-undef"/>
<line x1="185" y1="460" x2="185" y2="375" class="channel-undef"/>
<line x1="260" y1="440" x2="225" y2="465" class="channel-undef"/>
<line x1="200" y1="270" x2="200" y2="260" class="channel-undef"/>
<line x1="190" y1="495" x2="190" y2="580" class="channel-undef"/>
<line x1="185" y1="340" x2="180" y2="250" class="channel-undef"/>
<line x1="185" y1="340" x2="175" y2="445" class="channel-undef"/>
<line x1="185" y1="340" x2="110" y2="420" class="channel-undef"/>
<line x1="225" y1="115" x2="225" y2="200" class="channel-both"/>
<line x1="235" y1="230" x2="260" y2="395" class="channel-both"/>
<line x1="220" y1="270" x2="245" y2="240" class="channel-undef"/>
<line x1="155" y1="220" x2="125" y2="400" class="channel-undef"/>
<line x1="200" y1="145" x2="165" y2="205" class="channel-undef"/>
<line x1="110" y1="475" x2="160" y2="575" class="channel-undef"/>
<line x1="240" y1="575" x2="290" y2="460" class="channel-undef"/>
<line x1="180" y1="250" x2="175" y2="445" class="channel-undef"/>
<line x1="180" y1="250" x2="110" y2="420" class="channel-undef"/>
<line x1="140" y1="280" x2="155" y2="240" class="channel-d"/>
<line x1="175" y1="200" x2="215" y2="110" class="channel-d"/>
<line x1="185" y1="110" x2="200" y2="35" class="channel-undef"/>
<line x1="215" y1="335" x2="145" y2="335" class="channel-undef"/>
<line x1="115" y1="345" x2="110" y2="395" class="channel-undef"/>
<line x1="180" y1="470" x2="115" y2="455" class="channel-undef"/>
<line x1="105" y1="445" x2="140" y2="580" class="channel-undef"/>
<line x1="215" y1="455" x2="215" y2="365" class="channel-undef"/>
<line x1="290" y1="470" x2="230" y2="585" class="channel-transit"/>
<line x1="120" y1="465" x2="150" y2="585" class="channel-undef"/>
<line x1="175" y1="445" x2="110" y2="420" class="channel-undef"/>
<line x1="240" y1="210" x2="265" y2="400" class="channel-undef"/>
<line x1="280" y1="400" x2="125" y2="340" class="channel-transit"/>
<line x1="250" y1="580" x2="305" y2="450" class="channel-undef"/>
<line x1="205" y1="510" x2="175" y2="570" class="channel-transit"/>
<line x1="175" y1="115" x2="175" y2="40" class="channel-undef"/>
<polygon points="200,22 172,67 228,67" class="center-undef"/>
<text class="center-label" x="200" y="54">Head</text>
<polygon points="200,102 172,147 228,147" class="center-def"/>
<text class="center-label" x="200" y="134">Ajna</text>
<rect x="172" y="210" width="56" height="39" rx="4" class="center-def"/>
<text class="center-label" x="200" y="234">Throat</text>
<rect x="172" y="330" width="56" height="39" rx="4" class="center-undef"/>
<text class="center-label" x="200" y="354">G</text>
<polygon points="120,288 98,323 142,323" class="center-def"/>
<text class="center-label" x="120" y="314">Ego</text>
<polygon points="262,413 318,413 290,458" class="center-def"/>
<text class="center-label" x="290" y="434">SP</text>
<rect x="172" y="460" width="56" height="39" rx="4" class="center-undef"/>
<text class="center-label" x="200" y="484">Sacral</text>
<polygon points="86,430 124,406 124,454" class="center-undef"/>
<text class="center-label" x="110" y="434">Spleen</text>
<rect x="172" y="570" width="56" height="39" rx="4" class="center-undef"/>
<text class="center-label" x="200" y="594">Root</text>
<circle cx="210" cy="280" r="5.5" class="gate-p"/>
<text class="gate-label-active" x="210" y="272">1</text>
<circle cx="200" cy="375" r="5.5" class="gate-p"/>
<text class="gate-label-active" x="200" y="368">2</text>
<circle cx="185" cy="460" r="6" class="gate-both"/>
<text class="gate-label-active" x="185" y="452">5</text>
<circle cx="220" cy="250" r="5" class="gate-transit"/>
<text class="gate-label-active" x="220" y="243">8</text>
<circle cx="225" cy="115" r="5.5" class="gate-d"/>
<text class="gate-label-active" x="225" y="108">11</text>
<circle cx="235" cy="230" r="6" class="gate-both"/>
<text class="gate-label-active" x="235" y="222">12</text>
<circle cx="220" cy="270" r="5" class="gate-transit"/>
<text class="gate-label-active" x="220" y="263">13</text>
<circle cx="200" cy="145" r="5.5" class="gate-d"/>
<text class="gate-label-active" x="200" y="138">17</text>
<circle cx="180" cy="250" r="5.5" class="gate-p"/>
<text class="gate-label-active" x="180" y="242">20</text>
<circle cx="140" cy="280" r="5.5" class="gate-d"/>
<text class="gate-label-active" x="140" y="272">21</text>
<circle cx="260" cy="395" r="5.5" class="gate-p"/>
<text class="gate-label-active" x="260" y="388">22</text>
<circle cx="175" cy="200" r="5.5" class="gate-d"/>
<text class="gate-label-active" x="175" y="192">23</text>
<circle cx="215" cy="335" r="5" class="gate-transit"/>
<text class="gate-label-active" x="215" y="328">25</text>
<circle cx="115" cy="345" r="5.5" class="gate-d"/>
<text class="gate-label-active" x="115" y="338">26</text>
<circle cx="105" cy="445" r="6" class="gate-both"/>
<text class="gate-label-active" x="105" y="437">28</text>
<circle cx="215" cy="455" r="5" class="gate-transit"/>
<text class="gate-label-active" x="215" y="448">29</text>
<circle cx="290" cy="470" r="5.5" class="gate-p"/>
<text class="gate-label-active" x="290" y="462">30</text>
<circle cx="200" cy="260" r="5.5" class="gate-d"/>
<text class="gate-label-active" x="200" y="252">31</text>
<circle cx="280" cy="400" r="5" class="gate-transit"/>
<text class="gate-label-active" x="280" y="393">37</text>
<circle cx="125" cy="340" r="5" class="gate-transit"/>
<text class="gate-label-active" x="125" y="333">40</text>
<circle cx="230" cy="585" r="5" class="gate-transit"/>
<text class="gate-label-active" x="230" y="578">41</text>
<circle cx="205" cy="510" r="5.5" class="gate-p"/>
<text class="gate-label-active" x="205" y="502">42</text>
<circle cx="215" cy="110" r="5.5" class="gate-d"/>
<text class="gate-label-active" x="215" y="102">43</text>
<circle cx="155" cy="240" r="5.5" class="gate-d"/>
<text class="gate-label-active" x="155" y="232">45</text>
<circle cx="175" cy="115" r="5.5" class="gate-p"/>
<text class="gate-label-active" x="175" y="108">47</text>
<circle cx="125" cy="400" r="6" class="gate-both"/>
<text class="gate-label-active" x="125" y="392">48</text>
<circle cx="290" cy="460" r="5.5" class="gate-p"/>
<text class="gate-label-active" x="290" y="452">49</text>
<circle cx="175" cy="570" r="5" class="gate-transit"/>
<text class="gate-label-active" x="175" y="563">53</text>
<circle cx="225" cy="200" r="5.5" class="gate-p"/>
<text class="gate-label-active" x="225" y="192">56</text>
<circle cx="225" cy="40" r="5" class="gate-transit"/>
<text class="gate-label-active" x="225" y="33">63</text>
<text class="type-label" x="200" y="650">Strategy: To Inform | Authority: Emotional (Solar Plexus) | Signature: Peace</text>
<circle cx="30" cy="680" r="4" class="gate-p"/><text class="label" x="60" y="683">Personality</text>
<circle cx="110" cy="680" r="4" class="gate-d"/><text class="label" x="140" y="683">Design</text>
<circle cx="180" cy="680" r="4" class="gate-both"/><text class="label" x="200" y="683">Both</text>
<circle cx="240" cy="680" r="4" class="gate-transit"/><text class="label" x="270" y="683">Transit</text>
</svg>
