<svg xmlns="http://www.w3.org/2000/svg" viewBox="0 0 851.41 1309.4" opacity="0.12">
  <!-- Body silhouette background layer, traced from design/default.png -->
  <g fill="#9a9590" stroke="none">
    <!-- Head -->
    <ellipse cx="420" cy="45" rx="55" ry="50"/>
    <!-- Neck -->
    <rect x="395" y="90" width="50" height="60" rx="10"/>
    <!-- Shoulders & Upper Body -->
    <path d="M420,150 Q420,160 340,200 Q260,240 200,320 Q170,360 160,420
             Q150,480 160,540 Q170,600 190,660 L190,700
             Q190,720 200,740 L200,760 Q190,800 180,840
             Q170,880 150,920 Q130,960 100,1000
             Q80,1030 70,1060 Q60,1100 70,1140
             Q80,1180 100,1210 Q120,1240 150,1260
             Q180,1280 220,1290 Q260,1300 300,1300
             L540,1300 Q580,1300 620,1290
             Q660,1280 690,1260 Q720,1240 740,1210
             Q760,1180 770,1140 Q780,1100 770,1060
             Q760,1030 740,1000 Q720,960 700,920
             Q680,880 670,840 Q660,800 650,760
             L650,740 Q660,720 660,700 L660,660
             Q680,600 690,540 Q700,480 690,420
             Q680,360 650,320 Q590,240 500,200
             Q420,160 420,150 Z"/>
    <!-- Left Arm -->
    <path d="M200,320 Q160,380 130,460 Q100,540 80,620 Q60,700 50,760
             Q40,820 45,860 Q55,880 70,870 Q85,860 95,820
             Q105,780 115,720 Q125,660 140,600 Q155,540 170,480
             Q185,420 200,360 Z" opacity="0.7"/>
    <!-- Right Arm -->
    <path d="M650,320 Q690,380 720,460 Q750,540 770,620 Q790,700 800,760
             Q810,820 805,860 Q795,880 780,870 Q765,860 755,820
             Q745,780 735,720 Q725,660 710,600 Q695,540 680,480
             Q665,420 650,360 Z" opacity="0.7"/>
  </g>
</svg>
